<?xml version="1.0" standalone="no"?>
<!DOCTYPE svg PUBLIC "-//W3C//DTD SVG 20010904//EN"
 "http://www.w3.org/TR/2001/REC-SVG-20010904/DTD/svg10.dtd">
<svg version="1.0" xmlns="http://www.w3.org/2000/svg"
 width="500.000000pt" height="500.000000pt" viewBox="0 0 500.000000 500.000000"
 preserveAspectRatio="xMidYMid meet">
<metadata>
Created by potrace 1.14, written by Peter Selinger 2001-2017
</metadata>
<g transform="translate(0.000000,500.000000) scale(0.100000,-0.100000)"
fill="#000000" stroke="none">
<path d="M2047 4052 l-447 -447 90 -90 90 -90 353 353 c193 193 357 352 362
352 5 0 170 -160 365 -355 l355 -355 90 90 90 90 -450 450 -450 450 -448 -448z"/>
<path d="M1580 3265 c0 -69 -3 -125 -7 -125 -4 0 -46 38 -93 85 l-86 86 -444
-451 -443 -452 444 -444 444 -444 90 90 90 90 -358 358 -357 357 353 353 c193
193 355 352 360 352 4 0 7 -74 7 -165 l0 -165 273 -2 272 -3 3 -692 2 -693
370 0 370 0 2 693 3 692 273 3 272 2 0 300 0 300 -920 0 -920 0 0 -125z"/>
<path d="M3515 3300 l-90 -90 355 -355 355 -355 -358 -358 -357 -357 90 -90
90 -90 448 448 447 447 -445 445 -445 445 -90 -90z"/>
</g>
</svg>
